<svg xmlns="http://www.w3.org/2000/svg" viewBox="0 0 500 500"><g id="freepik--background-complete--inject-137"><path d="M467.92,327.89c0,.15-97.57.27-217.91.27S32.08,328,32.08,327.89s97.55-.26,217.93-.26S467.92,327.75,467.92,327.89Z" style="fill:#e0e0e0"></path><path d="M98.87,97.43c-7.1,24.73,2.63,50.83,12.21,74.71l81.7,203.64,23.35,10.79C177.65,289.75,121.55,199.12,98.87,97.43Z" style="fill:#e0e0e0"></path><path d="M38.57,145.76C51.14,173.07,73.19,194.6,92.13,218a376.27,376.27,0,0,1,56.1,94.73l7.29-27.16A448,448,0,0,0,38.57,145.76Z" style="fill:#e0e0e0"></path><path d="M277.68,286l5.1,33.3A2093,2093,0,0,1,324.57,83.88C293.69,146.2,284.61,216.78,277.68,286Z" style="fill:#e0e0e0"></path><path d="M375.26,288.25c-19.95,14.81-32.54,37.25-44.55,59l-.1,23.85c15-18,19.05-43.49,35.26-60.37,7.22-7.54,16.41-12.85,25.46-18.05l49.48-28.45C417.71,268.45,394.11,274.25,375.26,288.25Z" style="fill:#e0e0e0"></path><path d="M281.69,393.62c-2.68-2.61-6.75-3-10.49-3.19l-28.77-1.68c-7.59-.45-15.52-.83-22.47,2.25-7.86,3.49-13.2,10.83-19.79,16.35A50.46,50.46,0,0,1,166.41,419c-3.85-.13-7.8-.69-11.49.41s-7.09,4.53-6.53,8.34l4.88,3.46c6,6.67,16.09,8,25,6.93s17.59-4.15,26.58-4.63c9.52-.52,20.88,1.21,27-6.14a35.88,35.88,0,0,0,51.47-20.23C284.8,402.58,285.12,397,281.69,393.62Z" style="fill:#e0e0e0"></path><path d="M382,393.67c-2.36-6.25-6.5-12.09-12.45-15.13-3.77-1.92-8-2.61-12.2-3.28-9.33-1.5-22.07,2.11-31.39.62l.46,13.29c8.4-3,25.74-3,33.53-2.86a9.63,9.63,0,0,1,6.72,2.92c5,5.14,15.34,16.25,19.21,24.06C385.1,406.65,384.32,399.93,382,393.67Z" style="fill:#f5f5f5"></path><path d="M104,363.67c-8.22-1.24-16.67.79-24.2,4.3s-14.3,8.46-21,13.37c16.41-3.2,33.21-6.4,49.73-3.87,10.76,1.65,21.06,5.71,30.6,11l9-6.53C138.93,373.78,116.06,365.51,104,363.67Z" style="fill:#f5f5f5"></path><path d="M291.62,477.88c-6.41.55-13.27-.67-18.11-4.59s-7-10.9-3.95-16.13c.59-1,1.38-2.06,1.09-3.16s-1.44-1.68-2.5-2.16A161.4,161.4,0,0,0,233,440.34l-.77,1.92a1.55,1.55,0,0,0-.07,2.19,5.19,5.19,0,0,0,2.16,1.33l28.93,11.7c-3.33,5.7-2,13.17,2.42,18.19s11.47,7.71,18.46,8,13.94-1.61,20.21-4.49c2.76-1.27,5.77-3.24,5.8-6.1C304.13,475.2,298,477.33,291.62,477.88Z" style="fill:#e0e0e0"></path><path d="M361.61,33.67c.59-4.28-5.44-7.79-10-8.16-2.16-.17-4.41.16-6.46-.56-4.44-1.55-6.21-7.28-10.55-9.11-3.24-1.37-7-.15-10.1,1.43s-6.25,3.57-9.76,3.8c-3.05.19-6.36-.94-9,.55-2,1.11-3,3.4-4.87,4.76s-4.13,1.6-6.36,1.72-4.53.14-6.55,1.07-3.71,3.07-3.29,5.26Z" style="fill:#f5f5f5"></path><path d="M453,184c.43-3.11-4-5.68-7.28-5.94-1.57-.13-3.21.11-4.7-.41-3.24-1.13-4.53-5.31-7.69-6.64-2.36-1-5.07-.11-7.36,1s-4.55,2.6-7.1,2.77c-2.23.14-4.64-.68-6.59.4-1.45.81-2.21,2.48-3.54,3.47a8.51,8.51,0,0,1-4.64,1.25,13.16,13.16,0,0,0-4.77.78,3.8,3.8,0,0,0-2.4,3.84Z" style="fill:#f5f5f5"></path><path d="M448.66,89.41c.67-4.92-6.27-9-11.48-9.39-2.49-.2-5.07.18-7.43-.64-5.1-1.78-7.14-8.37-12.12-10.47-3.72-1.57-8-.17-11.62,1.64s-7.18,4.11-11.21,4.36c-3.51.23-7.32-1.07-10.39.64-2.28,1.28-3.48,3.91-5.59,5.47s-4.75,1.84-7.31,2-5.21.17-7.54,1.23-4.25,3.53-3.77,6Z" style="fill:#ebebeb"></path><path d="M152.38,60.74c.75-5.44-6.93-9.92-12.7-10.39-2.76-.22-5.61.2-8.22-.71-5.65-2-7.91-9.26-13.42-11.59-4.12-1.73-8.86-.19-12.86,1.82s-7.94,4.54-12.4,4.83c-3.88.25-8.1-1.19-11.49.7-2.54,1.42-3.86,4.33-6.19,6.05s-5.26,2-8.09,2.2-5.77.18-8.35,1.36S54,58.92,54.49,61.7Z" style="fill:#f5f5f5"></path><path d="M318.7,402a34.1,34.1,0,0,0-13.19.61,9.54,9.54,0,0,0-3.93,1.62,3.87,3.87,0,0,0-1.52,3.76,4.56,4.56,0,0,0,2.68,2.77c3.61,1.67,7.82.94,11.72.18a15.28,15.28,0,0,0,5-1.59,5.13,5.13,0,0,0,2.67-4.24C322.07,403.34,320.61,402.15,318.7,402Z" style="fill:#e0e0e0"></path></g><g id="freepik--Leaves--inject-137"><path d="M158.12,394.56s-27.68-75.21-41.27-89.42c-16.11-16.86-32.56-17.92-38.09-7.16s-20,51.52-20,51.52S63,345.93,69.29,337,90,301.55,90,301.55s9.73-2.24,22.42,12.59c11.38,13.3,35.76,86.7,35.76,86.7Z" style="fill:#455a64"></path><path d="M171,386.81S125.31,255.13,106.56,241s-64.51-23.79-64.51-23.79,49.64,18,58.09,28.89S159.2,389.86,159.2,389.86Z" style="fill:#455a64"></path><path d="M312.64,383s71.4-46.48,77.17-41.72,18.7,55.91,18.7,55.91-13.35-7.8-17.36-19.31a93.29,93.29,0,0,0-10.25-20.41l-58.83,28.17Z" style="fill:#455a64"></path><path d="M296.8,383.15c.85-2.52,52.59-251.45,52.59-251.45s-5.56,89-12.59,109.27S304,387.46,304,387.46Z" style="fill:#455a64"></path><path d="M349.39,133.25a2.77,2.77,0,0,1,0,.43c0,.3-.05.72-.09,1.25-.1,1.12-.24,2.73-.42,4.79-.33,4.17-1.05,10.17-2,17.59-1.9,14.82-5.31,35.2-9.83,57.54s-9.27,42.45-12.75,57c-1.75,7.25-3.16,13.12-4.15,17.2-.48,2-.86,3.58-1.12,4.68-.13.51-.23.92-.3,1.21a2.16,2.16,0,0,1-.13.41s0-.14.07-.42l.26-1.22c.24-1.1.58-2.68,1-4.7.94-4.1,2.3-10,4-17.24,3.39-14.55,8.05-34.66,12.6-57s8-42.69,10-57.49c.95-7.41,1.73-13.4,2.12-17.56l.51-4.78c.07-.53.11-.94.15-1.25A2.78,2.78,0,0,1,349.39,133.25Z" style="fill:#263238"></path><path d="M388.77,310.41c-12.61,3.79-23.27,12.37-32.35,21.91S339.49,352.53,330.31,362l-6,7.31c21-10.29,36.53-29.18,56.64-41.08a61.11,61.11,0,0,1,15.61-6.83c9.58-2.49,19.65-1.71,29.52-2.35s20.34-3.12,27-10.46C431.71,311.61,409.38,304.22,388.77,310.41Z" style="fill:#455a64"></path><path d="M404.41,314.79a4.85,4.85,0,0,1-.88-.06c-.57-.07-1.42-.12-2.51-.16a34.21,34.21,0,0,0-9.16,1.07,45.82,45.82,0,0,0-12.54,5.43,79.18,79.18,0,0,0-13.12,10.47c-4.31,4.14-8.19,8.32-11.86,12a117.24,117.24,0,0,1-10.19,9.3,59.88,59.88,0,0,1-7.69,5.24c-1,.54-1.71.93-2.24,1.18a8.16,8.16,0,0,1-.8.36,5.38,5.38,0,0,1,.75-.46c.51-.27,1.25-.69,2.19-1.25a66.57,66.57,0,0,0,7.56-5.36A123.56,123.56,0,0,0,354,343.2c3.64-3.69,7.51-7.88,11.84-12a77.9,77.9,0,0,1,13.23-10.5,45.09,45.09,0,0,1,12.7-5.37,32.6,32.6,0,0,1,9.26-.92,22.19,22.19,0,0,1,2.52.26A5.15,5.15,0,0,1,404.41,314.79Z" style="fill:#263238"></path><path d="M302.6,387.15S337.21,289.81,362,268.68a339.73,339.73,0,0,1,48.29-34.35s-18.36,20.78-26.89,29.93-25.16,17-31.81,35.75-35.87,87.14-35.87,87.14Z" style="fill:#455a64"></path><path d="M379.5,259.58s-.06.08-.19.2l-.58.56-2.3,2.11-8.49,7.67c-1.79,1.62-3.81,3.34-5.81,5.34a62.47,62.47,0,0,0-5.91,6.83,63.19,63.19,0,0,0-5.29,8.45,106.77,106.77,0,0,0-4.29,9.84l-14.2,35c-1.83,4.44-3.32,8.05-4.36,10.59L326.87,349c-.13.31-.24.55-.33.74a1.85,1.85,0,0,1-.12.25.77.77,0,0,1,.07-.26c.08-.2.17-.45.28-.77.27-.7.65-1.67,1.12-2.9l4.21-10.65c3.61-9,8.57-21.38,14.06-35.05a104.65,104.65,0,0,1,4.31-9.88,61.95,61.95,0,0,1,11.35-15.36c2-2,4.07-3.7,5.87-5.31l8.61-7.55,2.36-2,.62-.52Z" style="fill:#263238"></path><path d="M301.89,389.07s58.78-192,64.44-209.55,13.17-54.29,13.17-54.29-1.55,38.18-9.1,69.3-16.6,52.4-26.66,86.78-33.51,108.74-33.51,108.74Z" style="fill:#455a64"></path><path d="M379.5,127.83s0,.19-.07.56l-.28,1.65c-.26,1.46-.64,3.59-1.12,6.32-1,5.5-2.44,13.43-4.21,23.22l-1.41,7.69c-.49,2.68-1,5.47-1.6,8.34a166.74,166.74,0,0,1-5.05,18c-4.08,12.52-8.38,26.35-12.83,40.89-8.88,29.09-16.66,55.5-22.24,74.63-2.76,9.56-5,17.3-6.54,22.68-.76,2.66-1.36,4.74-1.76,6.17-.21.69-.36,1.22-.47,1.6s-.18.54-.18.54,0-.19.12-.56l.42-1.61,1.67-6.2c1.47-5.37,3.65-13.14,6.39-22.72,5.49-19.16,13.21-45.59,22.09-74.68,4.45-14.54,8.76-28.37,12.87-40.89a164.79,164.79,0,0,0,5.08-18c.64-2.85,1.14-5.63,1.64-8.31l1.44-7.69c1.84-9.77,3.33-17.69,4.37-23.19.52-2.72.93-4.84,1.21-6.3.15-.7.26-1.25.33-1.64S379.5,127.83,379.5,127.83Z" style="fill:#263238"></path></g><g id="freepik--Character--inject-137"><path d="M313.08,353.1c-4.21.47-7.58,3.68-10.19,7a31.35,31.35,0,0,0-6.36,13.71,19.72,19.72,0,0,0,5.58,17.91,18.78,18.78,0,0,0,4.57,3.17,16.5,16.5,0,0,0,16-.8c4.23-2.83,6.23-6.93,7.41-11.87,1.27-5.35.17-11-1.52-15.84a26.55,26.55,0,0,0-5.82-9.41A12.1,12.1,0,0,0,313.08,353.1Z" style="fill:#FFDA62"></path><path d="M328.44,365.94a14.11,14.11,0,0,1-1.6-1.36l-4.13-3.82.31,0-4.49,6-.16.22-.21-.19-3-2.73-3.57-3.24h.34l-6.47,5.61-.16.14-.11-.17-2.44-3.57a9.47,9.47,0,0,1-.84-1.36,9,9,0,0,1,1,1.24l2.57,3.47-.27,0,6.38-5.71.16-.15.17.16,3.58,3.23,3,2.74-.37,0,4.56-5.94.14-.19.17.16,4,4A13.67,13.67,0,0,1,328.44,365.94Z" style="fill:#fff"></path><path d="M312,364.82c0-.06.42-.23.91.2a1.08,1.08,0,0,1,.32,1.06,1.22,1.22,0,0,1-1,.93,1.24,1.24,0,0,1-1.22-.62,1.07,1.07,0,0,1,0-1.1c.35-.56.83-.52.81-.45s-.31.18-.48.61a.76.76,0,0,0,.06.7.74.74,0,0,0,1.35-.19.73.73,0,0,0-.13-.69C312.32,364.9,312,364.89,312,364.82Z" style="fill:#fff"></path><path d="M304.89,359.89c0-.06.41-.23.91.21a1.09,1.09,0,0,1,.32,1.06,1.25,1.25,0,0,1-1,.93,1.23,1.23,0,0,1-1.22-.62,1.09,1.09,0,0,1,0-1.11c.36-.55.84-.51.82-.45s-.32.18-.49.62a.72.72,0,0,0,.07.69.8.8,0,0,0,.73.35.82.82,0,0,0,.62-.54.77.77,0,0,0-.13-.68C305.24,360,304.89,360,304.89,359.89Z" style="fill:#fff"></path><path d="M317.64,360.15s.41-.23.9.21a1.1,1.1,0,0,1,.33,1.06,1.26,1.26,0,0,1-1,.93,1.23,1.23,0,0,1-1.22-.62,1.09,1.09,0,0,1,0-1.11c.36-.55.83-.51.82-.45s-.32.19-.49.62a.72.72,0,0,0,.07.69.73.73,0,0,0,1.34-.19.71.71,0,0,0-.13-.68C318,360.24,317.63,360.23,317.64,360.15Z" style="fill:#fff"></path><path d="M301.3,364.82c0-.06.41-.23.9.2a1.11,1.11,0,0,1,.33,1.06,1.2,1.2,0,0,1-2.23.31,1.09,1.09,0,0,1,0-1.1c.36-.56.83-.52.82-.45s-.32.18-.49.61a.76.76,0,0,0,.06.7.82.82,0,0,0,.74.35.8.8,0,0,0,.61-.54.73.73,0,0,0-.13-.69C301.65,364.9,301.29,364.89,301.3,364.82Z" style="fill:#fff"></path><path d="M323.07,365.19c0-.05.41-.22.91.21a1.1,1.1,0,0,1,.32,1.06,1.19,1.19,0,0,1-2.22.31,1.07,1.07,0,0,1,0-1.1c.36-.56.84-.52.82-.45s-.32.18-.49.61a.72.72,0,0,0,.07.69.79.79,0,0,0,.74.36.81.81,0,0,0,.61-.55.77.77,0,0,0-.13-.68C323.43,365.28,323.07,365.27,323.07,365.19Z" style="fill:#fff"></path><path d="M297,381.82a1.88,1.88,0,0,1,.44.33c.31.29.7.63,1.16,1l4.13,3.82h-.27l7-6,.18-.15.17.17,2.8,2.74,3.28,3.23h-.34l5.82-5.14.14-.12.13.11,4.82,3.84,1.31,1.09a2.26,2.26,0,0,1,.43.41,2,2,0,0,1-.51-.32l-1.38-1-4.92-3.7h.26l-5.76,5.21-.18.16-.17-.17-3.3-3.22-2.79-2.75h.35l-7,5.93-.14.12-.13-.12-4-3.95-1.08-1.11A1.93,1.93,0,0,1,297,381.82Z" style="fill:#fff"></path><path d="M315.22,383.55c0,.05-.41.23-.9-.21a1.1,1.1,0,0,1-.33-1.06,1.25,1.25,0,0,1,1-.93,1.23,1.23,0,0,1,1.22.62,1.09,1.09,0,0,1,0,1.11c-.36.55-.83.51-.82.44s.32-.18.49-.61a.72.72,0,0,0-.07-.69.73.73,0,0,0-1.34.19.71.71,0,0,0,.13.68C314.87,383.46,315.23,383.47,315.22,383.55Z" style="fill:#fff"></path><path d="M322.21,387.88c0,.05-.42.22-.91-.21a1.08,1.08,0,0,1-.32-1.06,1.22,1.22,0,0,1,1-.93,1.24,1.24,0,0,1,1.22.62,1.07,1.07,0,0,1,0,1.1c-.35.56-.83.52-.81.45s.31-.18.48-.61a.76.76,0,0,0-.06-.7.74.74,0,0,0-1.35.19.73.73,0,0,0,.13.69C321.85,387.79,322.21,387.8,322.21,387.88Z" style="fill:#fff"></path><path d="M309.31,387.4c0,.05-.42.22-.91-.21a1.08,1.08,0,0,1-.32-1.06,1.22,1.22,0,0,1,1-.93,1.24,1.24,0,0,1,1.22.62,1.07,1.07,0,0,1,0,1.1c-.35.56-.83.52-.81.45s.31-.18.48-.61a.76.76,0,0,0-.06-.7.74.74,0,0,0-1.35.19.73.73,0,0,0,.13.69C309,387.31,309.31,387.32,309.31,387.4Z" style="fill:#fff"></path><path d="M327.24,383.55c0,.05-.41.23-.91-.21a1.09,1.09,0,0,1-.32-1.06,1.19,1.19,0,0,1,2.22-.31,1.09,1.09,0,0,1,0,1.11c-.36.55-.84.51-.82.44s.32-.18.49-.61a.72.72,0,0,0-.07-.69.79.79,0,0,0-.74-.36.81.81,0,0,0-.61.55.77.77,0,0,0,.13.68C326.88,383.46,327.24,383.47,327.24,383.55Z" style="fill:#fff"></path><path d="M302,383.13c0,.06-.41.23-.91-.21a1.09,1.09,0,0,1-.32-1.06,1.25,1.25,0,0,1,1-.93,1.23,1.23,0,0,1,1.22.62,1.09,1.09,0,0,1,0,1.11c-.36.55-.84.51-.82.45s.32-.19.49-.62a.72.72,0,0,0-.07-.69.78.78,0,0,0-.74-.35.8.8,0,0,0-.61.54.77.77,0,0,0,.13.68C301.6,383,302,383.05,302,383.13Z" style="fill:#fff"></path><path d="M329.53,370a6.26,6.26,0,0,1-1.16.55,27.65,27.65,0,0,1-3.29,1.16,38.74,38.74,0,0,1-5.06,1.13,41.66,41.66,0,0,1-6.33.44,43.51,43.51,0,0,1-6.32-.57,38.66,38.66,0,0,1-5-1.23,30.84,30.84,0,0,1-3.27-1.23,5.75,5.75,0,0,1-1.14-.58c0-.09,1.7.65,4.51,1.45a42,42,0,0,0,5,1.11,42.3,42.3,0,0,0,12.51.13,42.74,42.74,0,0,0,5-1C327.81,370.64,329.49,369.94,329.53,370Z" style="fill:#fff"></path><path d="M330.27,372.69a6.47,6.47,0,0,1-1.22.58,14.6,14.6,0,0,1-1.49.56c-.58.2-1.25.44-2,.64a45,45,0,0,1-5.36,1.16,52.62,52.62,0,0,1-6.69.51,49.79,49.79,0,0,1-6.7-.46,39.62,39.62,0,0,1-5.35-1.16c-.76-.2-1.42-.44-2-.65a15.38,15.38,0,0,1-1.48-.58,7.74,7.74,0,0,1-1.22-.6c0-.1,1.8.7,4.79,1.48a44.66,44.66,0,0,0,5.33,1,56.57,56.57,0,0,0,6.63.41,55.7,55.7,0,0,0,6.62-.47,49,49,0,0,0,5.33-1c.76-.17,1.42-.38,2-.56s1.1-.32,1.51-.47A7.48,7.48,0,0,1,330.27,372.69Z" style="fill:#fff"></path><path d="M330.27,375.82a7,7,0,0,1-1.22.57c-.4.18-.9.37-1.49.57s-1.25.44-2,.63a41.4,41.4,0,0,1-5.36,1.16,52.55,52.55,0,0,1-6.69.52,49.79,49.79,0,0,1-6.7-.46,39.62,39.62,0,0,1-5.35-1.16c-.76-.2-1.42-.44-2-.65a15.38,15.38,0,0,1-1.48-.58,7.74,7.74,0,0,1-1.22-.6c0-.1,1.8.69,4.79,1.48a42.89,42.89,0,0,0,5.33,1,54.4,54.4,0,0,0,6.63.42,57.89,57.89,0,0,0,6.62-.47,49,49,0,0,0,5.33-1c.76-.17,1.42-.38,2-.56s1.1-.33,1.51-.48A5.94,5.94,0,0,1,330.27,375.82Z" style="fill:#fff"></path><path d="M298.37,336.77s-4.22,8.28-3.14,14.39a114,114,0,0,0,4.17,15.51,81.38,81.38,0,0,1,2.07,8.19s1.57,2.64,3.79-.56a13.3,13.3,0,0,0,2.72-7.89,59.1,59.1,0,0,0-1.46-7s.25-4.25,2.24-2.93a41.47,41.47,0,0,1,3.95,3.06s.54,10.33,3.3,11.74c2.29,1.17,4.6.81,4.64-2.39a65.25,65.25,0,0,1,1.08-8.87s1.72,2.36,1.48,4.37,1.07,11.64,1.19,12.42c.41,2.77,4.23,2.38,4.23,2.38a2.57,2.57,0,0,0,2.79.17c1.3-.91,2.22-14,2.22-14l-2.28-7.06-8.05-12.78-2.57-10.05Z" style="fill:#ffbe9d"></path><path d="M301.7,350.28a10.44,10.44,0,0,1,1.7,1.26l4,3.19c3.09,2.5,5.46,4.72,5.34,4.84a10.2,10.2,0,0,1-1.71-1.25l-4-3.19C304,352.62,301.58,350.41,301.7,350.28Z" style="fill:#eb996e"></path><path d="M314.86,345.9a19.25,19.25,0,0,1,1.89,2.11,29.31,29.31,0,0,1,3.94,5.6,12.24,12.24,0,0,1,1,6.78,9.93,9.93,0,0,1-.57,2.78c-.08,0,.1-1.09.2-2.81a13,13,0,0,0-1.11-6.52,37.66,37.66,0,0,0-3.77-5.6A13,13,0,0,1,314.86,345.9Z" style="fill:#eb996e"></path><path d="M325.93,352.26a4.28,4.28,0,0,1,.66.89c.4.6,1,1.47,1.58,2.59a25.31,25.31,0,0,1,1.86,4.1,15.69,15.69,0,0,1,.66,2.6c.15.9.34,1.83.48,2.8a14.8,14.8,0,0,1,.17,2.88c-.07.95-.24,1.8-.36,2.64-.27,1.67-.56,3.17-.89,4.4a22.38,22.38,0,0,1-.94,2.89,3.63,3.63,0,0,1-.5,1c-.08,0,.54-1.48,1.08-4,.28-1.24.53-2.73.77-4.39.11-.83.28-1.71.33-2.6a14.8,14.8,0,0,0-.18-2.78,37.58,37.58,0,0,0-1.07-5.32,29.44,29.44,0,0,0-1.73-4.08C326.68,353.66,325.86,352.31,325.93,352.26Z" style="fill:#eb996e"></path><path d="M324.84,351a7.33,7.33,0,0,1-2.76-2.42,7.18,7.18,0,0,1-1.7-3.25c.14-.06.88,1.38,2.11,2.93S324.93,350.85,324.84,351Z" style="fill:#eb996e"></path><path d="M132.06,146.48c2.48-10.36,8.89-19.26,14.44-28.37a193.53,193.53,0,0,0,16.28-33.75c2.47-6.74,5.68-14.66,12.69-16.17l50.91-8.06c9.26-9.72,20.74,2.18,27.32,10.23a39.67,39.67,0,0,1,5.92,10c4.55,11.24,4.61,23.72,4.87,35.84s.87,24.69,6.37,35.5c1.94,3.83,4.53,7.57,4.75,11.85.28,5.25-1.07,7.81-4.48,11.8-4,4.71,2.61,16.61-1.45,19.32-5.79,3.87-23.25-1.68-30.17-.93L217.92,196c-6.23.67-12.78,1.3-18.55-1.15-5.22-2.21-9.39-6.78-14.94-7.91-6.69-1.37-13.24,2.64-20,3.42-10,1.16-20.36-5.81-23.06-15.53C132.2,169.4,129.57,156.85,132.06,146.48Z" style="fill:#263238"></path><path d="M251.25,94.82c-1.41-14.8-17.86-29.09-32.59-27L171,78.43l.41,8,6.15,98.69h0s5.14,31.73,32,29c24.1-2.41,21.95-27.89,21.95-27.9l-1.34-18.6s19.49-1.41,22.62-26.25C254.34,129,252.82,111.26,251.25,94.82Z" style="fill:#ffbe9d"></path><path d="M243.69,118.81a3.17,3.17,0,0,1-2.95,3.3,3,3,0,0,1-3.36-2.75,3.17,3.17,0,0,1,3-3.3A3,3,0,0,1,243.69,118.81Z" style="fill:#263238"></path><path d="M247.32,108.11c-.38.43-2.84-1.27-6.25-1.16s-5.86,1.91-6.24,1.5c-.19-.17.19-.93,1.25-1.76a8.67,8.67,0,0,1,5-1.71,8.32,8.32,0,0,1,5,1.43C247.12,107.18,247.5,107.92,247.32,108.11Z" style="fill:#263238"></path><path d="M215.39,120a3.16,3.16,0,0,1-2.95,3.29,3,3,0,0,1-3.36-2.75,3.18,3.18,0,0,1,2.95-3.3A3,3,0,0,1,215.39,120Z" style="fill:#263238"></path><path d="M216,109.65c-.38.43-2.85-1.27-6.25-1.15s-5.86,1.9-6.24,1.5c-.19-.18.18-.94,1.25-1.77a8.74,8.74,0,0,1,5-1.71,8.39,8.39,0,0,1,5,1.43C215.75,108.73,216.13,109.46,216,109.65Z" style="fill:#263238"></path><path d="M227,134.09c0-.16,2.1-.55,5.52-1.06.87-.11,1.69-.29,1.82-.8s-.19-1.32-.63-2.16q-1.29-2.64-2.71-5.52c-1-2-6.06-13.37-6.14-14.48.38-.13,3.74,6.13,7.51,14q1.37,2.91,2.6,5.56c.35.83.94,1.76.53,2.88a2.16,2.16,0,0,1-1.41,1.14,7.36,7.36,0,0,1-1.47.23C229.17,134.16,227,134.26,227,134.09Z" style="fill:#263238"></path><path d="M230.33,167.77A62.88,62.88,0,0,1,197,160s9,17,33.67,13.87Z" style="fill:#eb996e"></path><path d="M216.78,134.73c.56,0,.68,3.65,3.94,6.18s7.18,2,7.23,2.51c.05.23-.86.75-2.53.84a9.17,9.17,0,0,1-6-1.88,8,8,0,0,1-3.06-5.19C216.15,135.65,216.53,134.72,216.78,134.73Z" style="fill:#263238"></path><path d="M214.45,98.31c-.36,1.06-3.32.38-6.87.73s-6.46,1.47-6.87.47c-.18-.47.37-1.46,1.58-2.45a9.79,9.79,0,0,1,5.19-2,8.78,8.78,0,0,1,5.28,1.14C214,96.91,214.6,97.8,214.45,98.31Z" style="fill:#263238"></path><path d="M247.05,96.38c-.53,1-3.08.3-6,.56s-5.39,1.19-6.07.3c-.3-.44,0-1.39,1-2.37a7.72,7.72,0,0,1,4.75-2,7.83,7.83,0,0,1,5,1.33C246.84,95,247.28,95.91,247.05,96.38Z" style="fill:#263238"></path><path d="M184,174c-1.06-1.49-36.89,22.46-36.89,31.7s47.06,80.46,47.06,80.46-7.76,9.24-4.56,14.95l76.3-3.51,22.61-31.89L250.44,171,231.29,170C220.2,195.76,194.54,188.9,184,174Z" style="fill:#FFDA62"></path><g style="opacity:0.30000000000000004"><path d="M220.6,291.05c-3-12.13-4.19-24.91.43-36.53s16.5-21,28.89-19.42c6.67.86,12.56,4.64,18,8.58,1.94,1.4,4,3,4.71,5.26.66,2,.19,4.24-.41,6.29a50.87,50.87,0,0,1-20,27.36c-9.52,6.47-19.73,12.24-31.63,8.46"></path></g><path d="M250.44,171s28.91.45,42.14,28.19c5.16,10.83,24.37,50.45,25.63,58.55,2.06,13.29,6.63,80.92,6.63,80.92l-29.79-.15-10.44-66.43-23.27-53.27-16.2-20.58Z" style="fill:#FFDA62"></path><path d="M148.64,203.87h-1.56L132.82,277.6a30.22,30.22,0,0,0,1.43,16.25l19.23,50.93L180.89,336s-10.49-50.45-11.82-53.64,9.16-43,9.16-43Z" style="fill:#FFDA62"></path><path d="M160.21,221a3.71,3.71,0,0,1,.29.67l.75,1.94c.62,1.69,1.57,4.12,2.78,7.1,2.43,6,6.08,14.1,10.7,22.78s9.26,16.29,12.66,21.76l4.05,6.47c.46.73.82,1.32,1.1,1.77a4.58,4.58,0,0,1,.35.63,3.19,3.19,0,0,1-.44-.58l-1.18-1.71c-1-1.49-2.45-3.67-4.19-6.38-3.49-5.43-8.17-13-12.81-21.72a219.06,219.06,0,0,1-10.58-22.88c-1.17-3-2.07-5.46-2.63-7.17-.27-.82-.49-1.48-.65-2A3.19,3.19,0,0,1,160.21,221Z" style="fill:#263238"></path><path d="M270.87,243.33a9.4,9.4,0,0,1-.74-1.58l-1.86-4.35L262,223.08c-2.45-5.59-4.62-10.67-6.11-14.39-.74-1.85-1.33-3.36-1.71-4.42a11.21,11.21,0,0,1-.54-1.65,12.15,12.15,0,0,1,.73,1.58c.48,1.11,1.1,2.58,1.86,4.35,1.63,3.74,3.82,8.77,6.25,14.32s4.62,10.67,6.1,14.39c.75,1.86,1.33,3.37,1.71,4.42A12.91,12.91,0,0,1,270.87,243.33Z" style="fill:#263238"></path><path d="M214.74,276.2a32.48,32.48,0,0,1-3.28,1.08,75.42,75.42,0,0,0-7.73,3,74.12,74.12,0,0,0-7.34,3.88,32.38,32.38,0,0,1-3,1.76s.23-.24.7-.61,1.17-.87,2.06-1.46a52.53,52.53,0,0,1,7.32-4,53.53,53.53,0,0,1,7.85-2.88c1-.28,1.87-.49,2.46-.6A3.27,3.27,0,0,1,214.74,276.2Z" style="fill:#263238"></path><path d="M264.8,174.37c0,.09-1.32.25-3.28,1.1a15,15,0,0,0-9.18,12.8c-.17,2.12.11,3.45,0,3.46a3,3,0,0,1-.23-.92,12.13,12.13,0,0,1-.15-2.57,14.61,14.61,0,0,1,9.41-13.12,12.85,12.85,0,0,1,2.48-.68A2.41,2.41,0,0,1,264.8,174.37Z" style="fill:#263238"></path><path d="M169,281.49c-.05.08-1.11-.49-2.94-1.16a26.48,26.48,0,0,0-14.89-1c-1.89.41-3,.83-3.06.75s.26-.17.77-.38a15.73,15.73,0,0,1,2.21-.73A23.7,23.7,0,0,1,166.16,280a15.62,15.62,0,0,1,2.09,1C168.72,281.29,169,281.46,169,281.49Z" style="fill:#263238"></path><g style="opacity:0.30000000000000004"><path d="M161.42,224.16c-.89,11.47,4.34,22.51,13.25,29.78A156.69,156.69,0,0,1,161.42,224.16Z"></path></g><path d="M222,259.61s0,.42-.11,1.21a27.54,27.54,0,0,0-.06,3.47A95.55,95.55,0,0,0,223.4,277c1.9,10.64,5.48,25.15,9.89,41s8.76,30.19,11.92,40.53c1.58,5.14,2.87,9.31,3.77,12.24l1,3.33a6.09,6.09,0,0,1,.29,1.18s-.14-.39-.39-1.15-.64-1.89-1.1-3.3c-.95-2.87-2.3-7-3.93-12.19-3.26-10.31-7.66-24.59-12.07-40.5S224.84,287.71,223,277a88,88,0,0,1-1.42-12.74,24.58,24.58,0,0,1,.15-3.48c0-.4.12-.7.15-.9A1.48,1.48,0,0,1,222,259.61Z" style="fill:#455a64"></path><path d="M246.65,370c-5.08-7.35-5.33-7.93-5.33-7.93l-28.68,20.84c-.88,1.1-5.19,9.7-8.28,15.21s-6.24,19.12,2.15,24,16.1,5.75,23.34-1C235,416.41,248.39,388,248.39,388S253.64,380.18,246.65,370Z" style="fill:#263238"></path><path d="M245.46,367.15c-5.07-7.36-5.32-7.93-5.32-7.93l-28.68,20.83c-.89,1.1-5.2,9.7-8.29,15.22s-6.23,19.11,2.15,24,16.1,5.75,23.35-1c5.1-4.74,18.54-33.14,18.54-33.14S252.46,377.29,245.46,367.15Z" style="fill:#455a64"></path><path d="M209,291.1s-16,1.16-20.68,6.08-23,24.43-23.85,38.47,15.71,25.64,18,27.8,22.11,15.46,22.11,15.46,28.33,5.78,35.61-10.13a14.7,14.7,0,0,0,0-4.34c-.43-1.28-3-11.84-6.38-19.66-1.81-4.14-6.43-8.29-6.43-8.29l16.22-14.14s13.68-12.6,9.3-21.17S217.72,289.88,209,291.1Z" style="fill:#263238"></path><path d="M194,371.72c.66.44,14.6,13.85,15,13.85s19,7.06,25.38,0,9.14-21.19,9.14-21.19l-9.41-21.27s-3.26,18.32-17.49,25.09A43.06,43.06,0,0,1,194,371.72Z" style="fill:#455a64"></path><path d="M224.92,386.35a6.18,6.18,0,0,1-2.1,1,14.7,14.7,0,0,1-10.94-1A6.58,6.58,0,0,1,210,385a22.68,22.68,0,0,1,2.07,1,17.17,17.17,0,0,0,5.26,1.36,16.67,16.67,0,0,0,5.42-.43C224.08,386.62,224.89,386.27,224.92,386.35Z" style="fill:#263238"></path><path d="M217.86,353c-.1,0,.54-1.62,1.09-4.29a31.38,31.38,0,0,0,.57-4.76,31.15,31.15,0,0,0-1.71-11.53,31.29,31.29,0,0,0-1.93-4.38c-1.3-2.4-2.38-3.73-2.29-3.79a5.84,5.84,0,0,1,.79.9c.24.3.53.67.83,1.13a18.44,18.44,0,0,1,1,1.58,27.64,27.64,0,0,1,2.06,4.4,32,32,0,0,1,1.47,5.77A31.37,31.37,0,0,1,220,344a28.3,28.3,0,0,1-.69,4.8c-.13.68-.34,1.28-.49,1.8a11.64,11.64,0,0,1-.47,1.33A4.83,4.83,0,0,1,217.86,353Z" style="fill:#455a64"></path><path d="M249.34,383.93a8,8,0,0,1-.74-1.17l-1.87-3.27c-1.59-2.76-3.81-6.55-6.39-10.66s-5-7.76-6.83-10.38l-2.13-3.11a7.5,7.5,0,0,1-.74-1.18,7.17,7.17,0,0,1,.9,1.06c.55.7,1.33,1.73,2.27,3,1.88,2.58,4.38,6.2,7,10.32s4.77,7.95,6.27,10.76c.75,1.4,1.34,2.55,1.73,3.35A5.64,5.64,0,0,1,249.34,383.93Z" style="fill:#263238"></path><g style="opacity:0.30000000000000004"><path d="M236,329c-3.07-12-6.52-24.68-9.58-36.64a3.05,3.05,0,0,1-.15-.74c0,.08-3.82-.38-3.92-.36-.78.15,1.18,2.71,1.5,3.44a83,83,0,0,1,6.65,25.47c.27,2.89.38,5.92-.76,8.59s-3.85,4.87-6.74,4.53c1.56,1.24,2.79,2,4.35,3.25Z"></path></g><path d="M133.21,388.72l-7-.29a86.22,86.22,0,0,1,5.6-25.27c6.86-17.44,18.77-27.86,34.44-30.13,10-1.44,18.86.9,26.42,7,16,12.83,21.31,39.21,21.92,47.44l-7,.51c-.45-6.05-5-31-19.33-42.5a26.3,26.3,0,0,0-21-5.49C135.47,344.56,133.23,388.28,133.21,388.72Z" style="fill:#8b5d54"></path><ellipse cx="170.43" cy="389.07" rx="44.39" ry="17.38" style="fill:#8b5d54"></ellipse><path d="M147,372.21c-4.21,1.13-7.15,4.9-9.29,8.7a32.21,32.21,0,0,0-4.35,14.92,20.27,20.27,0,0,0,8.42,17.35,19.43,19.43,0,0,0,5.13,2.52,16.94,16.94,0,0,0,16.18-3.28c3.87-3.52,5.27-8,5.71-13.21.48-5.62-1.52-11.24-4-15.86a27.1,27.1,0,0,0-7.37-8.67A12.42,12.42,0,0,0,147,372.21Z" style="fill:#FFDA62"></path><path d="M164.61,382.91a2,2,0,0,1-.49-.27l-1.34-.87L158,378.52l.3-.07c-1.06,2-2.3,4.28-3.64,6.79l-.13.24-.23-.15L150.8,383l-4.12-2.74.33,0-5.71,6.69-.13.17-.14-.16-3-3.26a9.07,9.07,0,0,1-1.06-1.24,9.62,9.62,0,0,1,1.21,1.1l3.15,3.14H141l5.61-6.78.14-.17.19.13,4.13,2.73,3.49,2.32-.37.09c1.38-2.48,2.64-4.78,3.73-6.74l.11-.21.19.14,4.68,3.4,1.27,1C164.48,382.76,164.63,382.89,164.61,382.91Z" style="fill:#fff"></path><path d="M147.69,384.29c0-.05.39-.29.95.08a1.09,1.09,0,0,1,.49,1,1.22,1.22,0,0,1-2.2.66,1.14,1.14,0,0,1-.15-1.13c.27-.61.76-.64.75-.58s-.29.23-.4.7a.77.77,0,0,0,.17.7.86.86,0,0,0,.81.25.83.83,0,0,0,.54-.65.77.77,0,0,0-.24-.69C148.07,384.32,147.7,384.37,147.69,384.29Z" style="fill:#fff"></path><path d="M139.74,380.37c0-.05.39-.29.95.08a1.09,1.09,0,0,1,.49,1,1.22,1.22,0,0,1-2.2.66,1.14,1.14,0,0,1-.15-1.13c.27-.61.76-.65.75-.58s-.29.23-.4.7a.77.77,0,0,0,.17.7.86.86,0,0,0,.81.25.83.83,0,0,0,.54-.66.76.76,0,0,0-.24-.68C140.12,380.4,139.75,380.45,139.74,380.37Z" style="fill:#fff"></path><path d="M152.74,378.68c0-.05.39-.29.95.08a1.08,1.08,0,0,1,.49,1,1.27,1.27,0,0,1-.87,1.09,1.24,1.24,0,0,1-1.33-.44,1.12,1.12,0,0,1-.15-1.12c.27-.61.76-.65.75-.58s-.29.23-.4.7a.77.77,0,0,0,.17.7.86.86,0,0,0,.81.25.83.83,0,0,0,.54-.66.76.76,0,0,0-.24-.68C153.12,378.71,152.75,378.76,152.74,378.68Z" style="fill:#fff"></path><path d="M136.85,385.93c0-.05.38-.29,1,.08a1.1,1.1,0,0,1,.48,1,1.25,1.25,0,0,1-.87,1.09,1.26,1.26,0,0,1-1.32-.44,1.1,1.1,0,0,1-.16-1.12c.28-.61.77-.65.76-.58s-.3.23-.41.7a.78.78,0,0,0,.17.7.88.88,0,0,0,.82.25.86.86,0,0,0,.54-.66.78.78,0,0,0-.24-.68C137.22,386,136.85,386,136.85,385.93Z" style="fill:#fff"></path><path d="M159,383c0-.05.38-.29,1,.08a1.11,1.11,0,0,1,.49,1,1.22,1.22,0,0,1-2.2.66,1.11,1.11,0,0,1-.15-1.13c.27-.61.76-.64.75-.58s-.3.23-.4.7a.77.77,0,0,0,.17.7.85.85,0,0,0,.81.25A.83.83,0,0,0,160,384a.77.77,0,0,0-.24-.69C159.42,383,159.05,383.05,159,383Z" style="fill:#fff"></path><path d="M135.1,403.88s.19.08.49.27l1.34.87,4.79,3.25-.27,0,6.16-7.18.15-.17.19.13,3.27,2.36,3.83,2.78-.34,0,5.13-6.13L160,400l.15.08,5.48,3.17,1.5.9a2.38,2.38,0,0,1,.51.35,2,2,0,0,1-.57-.24l-1.55-.8-5.58-3,.26,0-5.06,6.18-.15.18-.19-.14-3.85-2.77-3.26-2.36.34,0-6.24,7.11-.12.14-.15-.11-4.68-3.39-1.27-1A2.83,2.83,0,0,1,135.1,403.88Z" style="fill:#fff"></path><path d="M153.88,402.84c0,.05-.38.29-.95-.08a1.12,1.12,0,0,1-.49-1,1.22,1.22,0,0,1,2.2-.66,1.1,1.1,0,0,1,.15,1.12c-.27.62-.76.65-.75.59s.3-.23.4-.7a.74.74,0,0,0-.17-.7.83.83,0,0,0-.81-.25.85.85,0,0,0-.54.65.75.75,0,0,0,.24.68C153.51,402.81,153.87,402.76,153.88,402.84Z" style="fill:#fff"></path><path d="M161.65,406.16s-.39.29-1-.07a1.12,1.12,0,0,1-.48-1,1.22,1.22,0,0,1,2.19-.66,1.1,1.1,0,0,1,.16,1.12c-.28.62-.76.65-.76.59s.3-.23.41-.7a.76.76,0,0,0-.17-.7.77.77,0,0,0-1.36.4.77.77,0,0,0,.24.68C161.27,406.13,161.64,406.09,161.65,406.16Z" style="fill:#fff"></path><path d="M148.46,407.66s-.39.29-1-.08a1.1,1.1,0,0,1-.49-1,1.22,1.22,0,0,1,2.2-.66,1.12,1.12,0,0,1,.15,1.12c-.27.62-.76.65-.75.59s.29-.23.4-.7a.76.76,0,0,0-.17-.7.76.76,0,0,0-1.35.4.75.75,0,0,0,.24.68C148.08,407.63,148.45,407.58,148.46,407.66Z" style="fill:#fff"></path><path d="M166.1,401c0,.05-.39.29-.95-.07a1.11,1.11,0,0,1-.49-1,1.22,1.22,0,0,1,2.2-.65,1.12,1.12,0,0,1,.15,1.12c-.27.62-.76.65-.75.58s.3-.23.4-.69a.76.76,0,0,0-.17-.7.76.76,0,0,0-1.35.4.76.76,0,0,0,.24.68C165.72,401,166.09,400.91,166.1,401Z" style="fill:#fff"></path><path d="M140.32,404.45c.05.05-.38.29-.95-.08a1.11,1.11,0,0,1-.48-1,1.22,1.22,0,0,1,2.19-.66,1.12,1.12,0,0,1,.16,1.13c-.28.61-.77.65-.76.58s.3-.23.41-.7a.77.77,0,0,0-.17-.7.88.88,0,0,0-.82-.25.85.85,0,0,0-.54.66.79.79,0,0,0,.24.68C140,404.42,140.32,404.37,140.32,404.45Z" style="fill:#fff"></path><path d="M166.35,386.9a6.78,6.78,0,0,1-1.09.73c-.36.23-.81.5-1.34.77s-1.14.62-1.83.92a40.65,40.65,0,0,1-5,1.92,44.8,44.8,0,0,1-6.37,1.42,44,44,0,0,1-6.51.38,38.65,38.65,0,0,1-5.31-.47c-.75-.1-1.42-.26-2-.38s-1.09-.25-1.5-.37a6,6,0,0,1-1.25-.41c0-.09,1.83.4,4.81.79a43.33,43.33,0,0,0,5.26.36,46.11,46.11,0,0,0,6.44-.42,47.58,47.58,0,0,0,6.3-1.36,45,45,0,0,0,5-1.8C164.7,387.79,166.3,386.81,166.35,386.9Z" style="fill:#fff"></path><path d="M167.51,389.49a7.17,7.17,0,0,1-1.15.77c-.38.24-.86.51-1.43.8s-1.2.64-1.94.95a42.38,42.38,0,0,1-5.27,2,52.48,52.48,0,0,1-6.72,1.55,50.36,50.36,0,0,1-6.88.56,40.12,40.12,0,0,1-5.62-.35c-.8-.09-1.51-.23-2.13-.36a14,14,0,0,1-1.6-.36,6.73,6.73,0,0,1-1.32-.42c0-.1,1.93.44,5.09.77a44.62,44.62,0,0,0,5.58.24,55,55,0,0,0,6.8-.6,56,56,0,0,0,6.67-1.49,48.33,48.33,0,0,0,5.25-1.88c.74-.29,1.39-.6,2-.87s1.07-.5,1.46-.72A7.1,7.1,0,0,1,167.51,389.49Z" style="fill:#fff"></path><path d="M168,392.67a7.17,7.17,0,0,1-1.15.77c-.38.24-.86.51-1.43.8s-1.2.64-1.94.95a42.38,42.38,0,0,1-5.27,2,52.48,52.48,0,0,1-6.72,1.55,50.36,50.36,0,0,1-6.88.56A40.12,40.12,0,0,1,139,399c-.8-.09-1.51-.23-2.13-.36a14,14,0,0,1-1.6-.36,6.73,6.73,0,0,1-1.32-.42c0-.1,1.93.44,5.09.77a44.62,44.62,0,0,0,5.58.24,55,55,0,0,0,6.8-.6,56,56,0,0,0,6.67-1.49,48.33,48.33,0,0,0,5.25-1.88c.74-.29,1.39-.6,2-.87s1.07-.5,1.46-.72A7.52,7.52,0,0,1,168,392.67Z" style="fill:#fff"></path><path d="M198.94,380.86c-4-1.68-8.66-.48-12.68,1.22a32.12,32.12,0,0,0-12.55,9.16,20.27,20.27,0,0,0-3.92,18.88,18.86,18.86,0,0,0,2.53,5.13,16.93,16.93,0,0,0,14.81,7.28c5.22-.43,9.06-3.12,12.59-7,3.81-4.16,5.66-9.83,6.53-15a27,27,0,0,0-.54-11.36C204.73,385.62,202.36,382.28,198.94,380.86Z" style="fill:#e0e0e0"></path><path d="M206.33,400.06a1.84,1.84,0,0,1-.23-.51c-.14-.42-.32-.91-.52-1.51-.47-1.4-1.08-3.26-1.81-5.49l.28.13-7,3.15-.25.11-.09-.26c-.44-1.27-.89-2.6-1.35-4-.55-1.62-1.09-3.19-1.59-4.69l.29.17L185.42,389l-.21,0,0-.2c-.16-1.8-.3-3.3-.41-4.43a9.21,9.21,0,0,1-.07-1.64,11.45,11.45,0,0,1,.28,1.61c.15,1.14.34,2.62.58,4.41l-.23-.16,8.58-1.94.22-.05.08.21c.51,1.5,1,3.07,1.6,4.69l1.34,4-.34-.15,7.06-3.07.22-.1.07.23c.66,2.25,1.21,4.13,1.63,5.54.17.61.31,1.12.42,1.54A2.12,2.12,0,0,1,206.33,400.06Z" style="fill:#fff"></path><path d="M192.08,390.83c0-.07.48,0,.71.64a1.14,1.14,0,0,1-.24,1.11,1.22,1.22,0,0,1-2.14-.82,1.14,1.14,0,0,1,.56-1c.6-.32,1,0,1,0s-.38,0-.75.31a.74.74,0,0,0-.29.66.76.76,0,0,0,1.32.5.77.77,0,0,0,.22-.68C192.36,391.08,192,390.9,192.08,390.83Z" style="fill:#fff"></path><path d="M188.18,382.87c0-.06.48,0,.71.64a1.14,1.14,0,0,1-.24,1.11,1.22,1.22,0,0,1-2.14-.82,1.1,1.1,0,0,1,.56-1c.59-.32,1,0,1,0s-.37,0-.74.31a.75.75,0,0,0-.29.66.82.82,0,0,0,.49.69.8.8,0,0,0,.82-.19.75.75,0,0,0,.23-.68C188.46,383.12,188.14,382.94,188.18,382.87Z" style="fill:#fff"></path><path d="M199.51,389.47c0-.07.48,0,.71.64a1.14,1.14,0,0,1-.24,1.11,1.3,1.3,0,0,1-1.36.33,1.26,1.26,0,0,1-.78-1.16,1.09,1.09,0,0,1,.56-1c.59-.32,1-.05.95,0s-.37,0-.74.3a.8.8,0,0,0-.3.66.77.77,0,0,0,1.32.51.78.78,0,0,0,.23-.69C199.79,389.72,199.47,389.53,199.51,389.47Z" style="fill:#fff"></path><path d="M182.49,385.51c0-.07.48,0,.71.64a1.12,1.12,0,0,1-.24,1.1,1.27,1.27,0,0,1-1.36.34,1.26,1.26,0,0,1-.78-1.16,1.12,1.12,0,0,1,.56-1c.59-.32,1-.05,1,0s-.38,0-.75.3a.76.76,0,0,0-.29.66.84.84,0,0,0,.49.7.86.86,0,0,0,.83-.19.8.8,0,0,0,.22-.69C182.77,385.76,182.45,385.57,182.49,385.51Z" style="fill:#fff"></path><path d="M201.88,396.71c0-.06.48,0,.7.64a1.09,1.09,0,0,1-.24,1.11,1.26,1.26,0,0,1-1.35.34,1.29,1.29,0,0,1-.79-1.16,1.13,1.13,0,0,1,.57-1c.59-.32,1,0,.95,0s-.38,0-.75.31a.78.78,0,0,0-.29.66.76.76,0,0,0,1.32.5.75.75,0,0,0,.23-.68C202.15,397,201.83,396.78,201.88,396.71Z" style="fill:#fff"></path><path d="M170.16,398.66a2.06,2.06,0,0,1,.22.52c.14.4.32.9.52,1.5l1.81,5.5-.23-.14,9.26-1.93.23-.05.07.23c.37,1.24.75,2.54,1.15,3.86l1.34,4.54-.3-.17,7.8-1.72.17,0,.07.16,2.41,5.86c.26.65.47,1.19.64,1.63a2.38,2.38,0,0,1,.19.59,2.28,2.28,0,0,1-.3-.54c-.2-.43-.45-.95-.74-1.59-.66-1.46-1.53-3.42-2.59-5.78l.24.12-7.78,1.8-.23.06-.07-.23c-.43-1.46-.89-3-1.35-4.54-.39-1.33-.78-2.62-1.14-3.87l.29.18-9.28,1.82-.18,0,0-.17c-.67-2.27-1.23-4.15-1.64-5.55-.17-.61-.31-1.12-.42-1.54A1.6,1.6,0,0,1,170.16,398.66Z" style="fill:#fff"></path><path d="M185.66,409.3c0,.06-.48,0-.7-.64a1.09,1.09,0,0,1,.24-1.11,1.26,1.26,0,0,1,1.35-.34,1.28,1.28,0,0,1,.79,1.16,1.1,1.1,0,0,1-.57,1c-.59.32-1,0-1,0s.38,0,.75-.31a.78.78,0,0,0,.29-.66.81.81,0,0,0-.49-.69.83.83,0,0,0-.83.18.78.78,0,0,0-.23.69C185.39,409,185.71,409.23,185.66,409.3Z" style="fill:#fff"></path><path d="M189.78,416.67c0,.07-.48,0-.7-.64a1.1,1.1,0,0,1,.24-1.11,1.23,1.23,0,0,1,2.14.83,1.11,1.11,0,0,1-.57,1c-.59.32-1,0-.95,0s.38,0,.75-.3a.8.8,0,0,0,.29-.67.84.84,0,0,0-.49-.69.86.86,0,0,0-.83.19.75.75,0,0,0-.23.68C189.5,416.42,189.82,416.61,189.78,416.67Z" style="fill:#fff"></path><path d="M178.43,409.8c0,.07-.49,0-.71-.64a1.08,1.08,0,0,1,.24-1.1,1.27,1.27,0,0,1,1.36-.34,1.29,1.29,0,0,1,.78,1.16,1.12,1.12,0,0,1-.56,1c-.6.32-1,.05-1,0s.38,0,.75-.3a.76.76,0,0,0,.29-.66.84.84,0,0,0-.49-.7.86.86,0,0,0-.83.19.74.74,0,0,0-.22.69C178.15,409.55,178.47,409.74,178.43,409.8Z" style="fill:#fff"></path><path d="M196.47,415.29c0,.07-.48,0-.71-.64a1.12,1.12,0,0,1,.24-1.11,1.29,1.29,0,0,1,1.36-.33,1.26,1.26,0,0,1,.78,1.16,1.12,1.12,0,0,1-.56,1c-.6.32-1,0-1,0s.38,0,.75-.3a.76.76,0,0,0,.29-.66.84.84,0,0,0-.49-.7.86.86,0,0,0-.83.19.77.77,0,0,0-.22.69C196.19,415,196.51,415.23,196.47,415.29Z" style="fill:#fff"></path><path d="M173.94,402.3c0,.06-.48,0-.71-.64a1.14,1.14,0,0,1,.24-1.11,1.28,1.28,0,0,1,1.36-.34,1.27,1.27,0,0,1,.78,1.16,1.1,1.1,0,0,1-.56,1c-.59.32-1,0-1,0s.37,0,.74-.31a.75.75,0,0,0,.29-.66.82.82,0,0,0-.49-.69.8.8,0,0,0-.82.19.75.75,0,0,0-.23.68C173.66,402.05,174,402.23,173.94,402.3Z" style="fill:#fff"></path><path d="M205.27,404.28a6.53,6.53,0,0,1-1.32-.08c-.42,0-.93-.1-1.52-.21s-1.28-.21-2-.39a39.24,39.24,0,0,1-5.11-1.52A40.16,40.16,0,0,1,184,395.65a40,40,0,0,1-3.91-3.61c-.54-.54-1-1.08-1.36-1.53a14.28,14.28,0,0,1-1-1.21,6,6,0,0,1-.74-1.08c.07-.06,1.2,1.43,3.32,3.56a46.77,46.77,0,0,0,4,3.5,47.52,47.52,0,0,0,5.36,3.59,46.67,46.67,0,0,0,5.82,2.77,45.52,45.52,0,0,0,5,1.6C203.42,404,205.28,404.18,205.27,404.28Z" style="fill:#fff"></path><path d="M204.61,407a6.89,6.89,0,0,1-1.39-.09,16.24,16.24,0,0,1-1.61-.24c-.63-.11-1.35-.23-2.12-.43a41.84,41.84,0,0,1-5.39-1.63,52.6,52.6,0,0,1-6.27-2.88A49.7,49.7,0,0,1,182,398a38.86,38.86,0,0,1-4.23-3.71c-.58-.55-1.06-1.1-1.48-1.58s-.77-.9-1-1.26a7,7,0,0,1-.79-1.14c.08-.07,1.26,1.52,3.56,3.72a47.27,47.27,0,0,0,4.27,3.59,58,58,0,0,0,5.76,3.68,55.1,55.1,0,0,0,6.19,2.88,45.85,45.85,0,0,0,5.31,1.72c.76.23,1.46.37,2.08.51s1.15.25,1.59.32A7.54,7.54,0,0,1,204.61,407Z" style="fill:#fff"></path><path d="M203.05,409.86a7.57,7.57,0,0,1-1.39-.1,16.24,16.24,0,0,1-1.61-.24c-.63-.1-1.35-.23-2.12-.43a42.42,42.42,0,0,1-5.4-1.63,47.91,47.91,0,0,1-12.06-6.62,41.19,41.19,0,0,1-4.24-3.72c-.57-.55-1-1.1-1.47-1.58a14.46,14.46,0,0,1-1-1.26,7,7,0,0,1-.79-1.14c.08-.07,1.26,1.52,3.56,3.72a45.92,45.92,0,0,0,4.27,3.59,55.19,55.19,0,0,0,5.76,3.68,57.09,57.09,0,0,0,6.19,2.89,50.72,50.72,0,0,0,5.3,1.72c.77.22,1.47.36,2.09.5s1.15.25,1.59.32A6.92,6.92,0,0,1,203.05,409.86Z" style="fill:#fff"></path><path d="M170.27,406.68c-21.71.08-40.14-8.06-44-16.13.78,12.41,7.21,38,41.84,39.73,39.68,2,45.53-29.55,46.38-39.63C212.46,399.47,193.46,406.6,170.27,406.68Z" style="fill:#c78976"></path><path d="M150.23,340.36a8.27,8.27,0,0,1-.61-7.56,4.55,4.55,0,0,1,1.91-2.27,3.81,3.81,0,0,1,4.72.88s.72-4.72,8.54-5.42,11.1-1.93,16.68,3.24,6.69,14.61,6.69,14.61.51,6.32-.95,8.52c-1.71,2.59-2.47,2-4.26,1.23s-2.64-5.18-2.64-5.18-1,1.59-4.19,2.19c-1.7.32-5.79-3.09-5.79-3.09s-1.8,3.46-5.18,3c-2.14-.32-5-4.44-5-4.44s-.18,4-3.18,2.74C155,347.93,152,343.34,150.23,340.36Z" style="fill:#ffbe9d"></path><path d="M160.34,346.83c-.16,0-.62-2.58-1.74-5.63s-2.4-5.36-2.27-5.43a16.34,16.34,0,0,1,2.76,5.25A16.67,16.67,0,0,1,160.34,346.83Z" style="fill:#eb996e"></path><path d="M170.33,347.51a76.26,76.26,0,0,1-4.07-11.89,38.35,38.35,0,0,1,2.29,5.86A37.93,37.93,0,0,1,170.33,347.51Z" style="fill:#eb996e"></path><path d="M180.43,348.93c-.16,0-.88-3.09-2.41-6.73s-3.2-6.37-3.07-6.46a7.08,7.08,0,0,1,1.24,1.71,32.63,32.63,0,0,1,3.9,9.4A7.69,7.69,0,0,1,180.43,348.93Z" style="fill:#eb996e"></path><path d="M162.21,96.76h1c-.52-6.21-.11-12.35,2.11-18.08,4-10.29,13.35-17.4,23.39-20.4a71.29,71.29,0,0,1,31.37-2.1c4.88.78,10.32,4,11.78,9,.75,2.59.11,5.39-.8,7.9-4.23,11.73-14.53,20.69-26.16,22.75-2.65.46-5.49.66-7.65,2.35-2.65,2.08-4.24,5.42-5.15,8.9a35.1,35.1,0,0,0-.6,4.64c-.29,4.48.26,9-.82,13.4-1.34,5.4-6.15,9.81-6.11,15.37.06,8.9,12.17,14,12.41,22.94.1,3.87-2.15,7.35-4,10.78s-3.26,7.59-1.55,11.08c.88,1.8,2.5,3.14,3.59,4.83,3.53,5.49.06,13.59-5.95,16.15s-13.25.45-18.21-3.81-8-10.29-10.44-16.36A116.94,116.94,0,0,1,162.21,96.76Z" style="fill:#263238"></path><path d="M228,59.19a.86.86,0,0,1-.25-.08l-.7-.27-2.65-1.09a34.51,34.51,0,0,0-10.29-2.06c-1.1.05-2.27,0-3.47.18a24.05,24.05,0,0,0-3.69.73,24.41,24.41,0,0,0-7.51,3.47,35.78,35.78,0,0,0-12.1,14.46,48.28,48.28,0,0,0-3.19,9.35A47.3,47.3,0,0,0,182.82,93a42.33,42.33,0,0,0,.69,8.3,66.47,66.47,0,0,0,1.48,7.13,45.69,45.69,0,0,0,3.79,9.82c.59,1.1,1.08,1.94,1.43,2.49l.39.64c.09.15.13.22.12.23a1,1,0,0,1-.16-.2c-.12-.16-.26-.36-.43-.61a28.24,28.24,0,0,1-1.53-2.45,43.66,43.66,0,0,1-4-9.82,66.53,66.53,0,0,1-1.54-7.16,42.76,42.76,0,0,1-.75-8.38,47.23,47.23,0,0,1,1.26-9.22,48.71,48.71,0,0,1,3.22-9.46,36,36,0,0,1,12.3-14.64,24.62,24.62,0,0,1,7.66-3.49,25,25,0,0,1,3.76-.71c1.23-.13,2.41-.11,3.53-.15a33.12,33.12,0,0,1,10.35,2.24l2.63,1.19.68.32A.85.85,0,0,1,228,59.19Z" style="fill:#FFDA62"></path><path d="M187.37,71.67s-.12.15-.4.39a15.46,15.46,0,0,1-1.22,1,26.55,26.55,0,0,1-5,3,36,36,0,0,1-8.2,2.62,50,50,0,0,1-5,.73,14.46,14.46,0,0,1-2.73.08,2.74,2.74,0,0,1-1.4-.54,1.72,1.72,0,0,1-.62-1.44,4,4,0,0,1,1.57-2.43c.35-.29.68-.61,1-.88l1.09-.8A21.1,21.1,0,0,1,171,71.05a22,22,0,0,1,8.51-1.32,19.08,19.08,0,0,1,5.7,1.11,11.6,11.6,0,0,1,1.46.6,1.77,1.77,0,0,1,.49.26s-.71-.27-2-.67a20.37,20.37,0,0,0-5.65-.93,22.14,22.14,0,0,0-8.33,1.4,20.59,20.59,0,0,0-4.44,2.29l-1.06.78c-.35.27-.67.58-1,.87a3.56,3.56,0,0,0-1.4,2.08,1.17,1.17,0,0,0,.43,1,2.29,2.29,0,0,0,1.14.43,14.32,14.32,0,0,0,2.61-.08c1.75-.16,3.42-.39,5-.69a37.05,37.05,0,0,0,8.14-2.49,29.18,29.18,0,0,0,5-2.8C186.76,72.12,187.34,71.63,187.37,71.67Z" style="fill:#FFDA62"></path><path d="M187.39,71.81a9.14,9.14,0,0,1-.83-1.44c-.51-1-1.22-2.34-2-4.11a28.48,28.48,0,0,1-2-6.49,17.76,17.76,0,0,1-.22-4,9.59,9.59,0,0,1,.33-2.14,2.38,2.38,0,0,1,1.6-1.69,1.55,1.55,0,0,1,1.26.19,2.34,2.34,0,0,1,.78.91,15.08,15.08,0,0,1,.74,2,34,34,0,0,1,1,3.9,29.41,29.41,0,0,1,.54,6.77,21.48,21.48,0,0,1-.63,4.53,10.13,10.13,0,0,1-.37,1.18c-.09.27-.15.41-.17.4s.13-.58.34-1.63a24.86,24.86,0,0,0,.47-4.49,31.64,31.64,0,0,0-.65-6.67,35.37,35.37,0,0,0-1-3.83,14.87,14.87,0,0,0-.71-1.94,1.27,1.27,0,0,0-1.45-.84,1.88,1.88,0,0,0-1.24,1.35,9.57,9.57,0,0,0-.31,2,17.42,17.42,0,0,0,.19,3.92,29.29,29.29,0,0,0,1.86,6.42c.72,1.78,1.38,3.19,1.83,4.17A9.34,9.34,0,0,1,187.39,71.81Z" style="fill:#FFDA62"></path><path d="M244.71,236.19c-9.05,1.51-24.1,11.85-23.31,31.21s28.88,107.89,28.88,107.89l36.22.59,4.73-55.22,2-32.19c.68-10.84-4.41-20.44-9.71-29.92C275.42,244,263.68,233,244.71,236.19Z" style="fill:#263238"></path><path d="M288.72,334.93a6.74,6.74,0,0,1,0-.84c0-.59,0-1.39.05-2.39s.07-2.32,0-3.8,0-3.16-.09-5q-.06-1.39-.12-2.91c0-1-.16-2.07-.24-3.16-.13-2.18-.44-4.5-.72-6.94a149.51,149.51,0,0,0-3-15.7,147.92,147.92,0,0,0-4.81-15.25c-.91-2.28-1.74-4.47-2.66-6.46-.45-1-.85-2-1.29-2.88s-.87-1.79-1.28-2.63c-.78-1.69-1.61-3.15-2.3-4.46s-1.31-2.42-1.83-3.32l-1.19-2.09a5.09,5.09,0,0,1-.38-.74,5.33,5.33,0,0,1,.47.69l1.27,2c.56.88,1.22,2,1.92,3.28s1.56,2.75,2.37,4.43l1.31,2.62c.45.92.87,1.89,1.32,2.89.94,2,1.79,4.17,2.72,6.46A143,143,0,0,1,285.14,294a145.63,145.63,0,0,1,3,15.77c.27,2.45.56,4.78.67,7,.07,1.09.17,2.15.21,3.17s.06,2,.09,2.92c.08,1.87,0,3.56,0,5s-.06,2.75-.13,3.79-.11,1.81-.15,2.4A4.47,4.47,0,0,1,288.72,334.93Z" style="fill:#455a64"></path><path d="M287.41,388.8c-.23-1.64-1.41.12-3.07,0A5.65,5.65,0,0,0,281,390.1l-40.66,27.06-1.13-.48c.34,4.88,4.24,8.29,8.81,10a18.56,18.56,0,0,0,14.1,0,36.85,36.85,0,0,0,12-8.54c5.57-6.05,9.53-13.46,12.44-21.15A27.37,27.37,0,0,0,287.41,388.8Z" style="fill:#263238"></path><path d="M289.64,340.09c-17.56,3.94-34.38,4.11-50.37,0l12,44.39v.7s-9.39,13.4-13,24.62c-1.92,6,1.17,10.89,7.13,12.93a23.22,23.22,0,0,0,16.89-.07c9.19-3.18,15.39-13.72,17.71-18.6s7.47-12.86,7.52-16.91c.12-7.93-.12-19.31-.12-19.31Z" style="fill:#455a64"></path><path d="M264.56,385.11a6.5,6.5,0,0,1-.94-.1c-.61-.08-1.51-.19-2.66-.27a37.9,37.9,0,0,0-9.52.53l-.2,0-.05-.2-4-15c-2-7.67-3.78-14.6-5.1-19.7-.61-2.48-1.12-4.51-1.49-6-.15-.66-.28-1.21-.38-1.63a2.14,2.14,0,0,1-.09-.58,3.22,3.22,0,0,1,.2.55l.47,1.61c.41,1.47,1,3.48,1.65,5.94L247.7,370l3.91,15-.25-.16a35.09,35.09,0,0,1,9.62-.35c1.16.12,2,.27,2.66.39A3.62,3.62,0,0,1,264.56,385.11Z" style="fill:#263238"></path><path d="M282.32,342.19c.14,0-.12,13.79-.58,30.8s-1,30.79-1.11,30.79.12-13.79.59-30.81S282.18,342.18,282.32,342.19Z" style="fill:#263238"></path><path d="M251.88,384.43a9.14,9.14,0,0,1-.84,1.35l-2.36,3.63c-2,3.07-4.59,7.39-7.14,12.35a40.58,40.58,0,0,0-3.12,7.15,12.82,12.82,0,0,0-.37,6.24A9,9,0,0,0,239.8,419c.64.78,1.11,1.11,1.07,1.15s-.13-.06-.35-.22a6.16,6.16,0,0,1-.87-.8,8.71,8.71,0,0,1-2-3.9,12.94,12.94,0,0,1,.27-6.45,38.65,38.65,0,0,1,3.12-7.26,123,123,0,0,1,7.29-12.31c1-1.52,1.89-2.72,2.51-3.54A8.61,8.61,0,0,1,251.88,384.43Z" style="fill:#263238"></path></g><g id="freepik--Grass--inject-137"><path d="M156.28,434.29c-3.44-8.19-12.69-22.44-20.27-27.07-5.67-3.47-12.7-4.11-19.27-3.11s-12.79,3.5-18.95,6c6.09,1.59,12.41,2,18.64,2.94s13.1.47,15.87,2.1c3.37,2,7.82,5.5,21.37,19.17Z" style="fill:#455a64"></path><path d="M111.12,408.62a2.47,2.47,0,0,1,.55-.08c.36,0,.88-.09,1.57-.12a52.86,52.86,0,0,1,5.79,0,43.71,43.71,0,0,1,8.53,1.2,31.34,31.34,0,0,1,9.66,4.2,34.55,34.55,0,0,1,7.62,7.29c2,2.52,3.74,4.87,5.2,6.83l3.43,4.66.91,1.28c.21.3.31.46.29.47a2.64,2.64,0,0,1-.37-.4c-.27-.33-.59-.73-1-1.22-.85-1.07-2.06-2.63-3.55-4.57s-3.24-4.25-5.29-6.75a34.42,34.42,0,0,0-7.53-7.15,31.15,31.15,0,0,0-9.49-4.17,44.91,44.91,0,0,0-8.43-1.3c-2.43-.17-4.4-.15-5.76-.13l-1.58,0A1.8,1.8,0,0,1,111.12,408.62Z" style="fill:#263238"></path><path d="M332.77,430.41a5,5,0,0,1,1.14,0,9.13,9.13,0,0,1,1.33.14,15.93,15.93,0,0,1,1.75.33,23.32,23.32,0,0,1,4.36,1.52,24.23,24.23,0,0,1,8.81,7,23,23,0,0,1,2.46,3.91,15.13,15.13,0,0,1,.72,1.62,8.08,8.08,0,0,1,.44,1.27,4.21,4.21,0,0,1,.27,1.1c-.1,0-.53-1.53-1.75-3.82a24.74,24.74,0,0,0-2.52-3.78,28,28,0,0,0-3.94-3.91,28.39,28.39,0,0,0-4.7-2.95,24,24,0,0,0-4.25-1.59C334.39,430.59,332.76,430.52,332.77,430.41Z" style="fill:#263238"></path><path d="M353.69,420.81a4,4,0,0,1,.1,1.07c0,.81.07,1.78.11,2.92.11,2.46.34,5.86.79,9.59s1.06,7.08,1.55,9.5l.59,2.85a4.84,4.84,0,0,1,.17,1.07,4,4,0,0,1-.36-1c-.21-.66-.47-1.62-.76-2.83a85.81,85.81,0,0,1-2.34-19.15c0-1.24,0-2.24,0-2.93A4.64,4.64,0,0,1,353.69,420.81Z" style="fill:#263238"></path><path d="M368.47,421.29c.08,0-.78,1.21-1.84,3.24a31.92,31.92,0,0,0-1.6,3.69,33,33,0,0,0-1.24,4.76,32.3,32.3,0,0,0-.43,4.9,30.79,30.79,0,0,0,.27,4c.32,2.27.74,3.64.64,3.67a3.91,3.91,0,0,1-.36-.94,20.18,20.18,0,0,1-.64-2.68,25.52,25.52,0,0,1-.38-4.06,28.73,28.73,0,0,1,.39-5,29.72,29.72,0,0,1,1.3-4.83,24.9,24.9,0,0,1,1.73-3.7,20.45,20.45,0,0,1,1.5-2.31A3.84,3.84,0,0,1,368.47,421.29Z" style="fill:#263238"></path><path d="M53.28,428.19c-.08,0-.74-1.3-2-3.33a48.36,48.36,0,0,0-5.66-7.43,49.59,49.59,0,0,0-7-6.18c-2-1.4-3.24-2.15-3.19-2.23a4.18,4.18,0,0,1,.95.45A27.86,27.86,0,0,1,38.82,411,41.76,41.76,0,0,1,46,417.07a41.27,41.27,0,0,1,5.6,7.6c.59,1.05,1,1.92,1.3,2.54A4.13,4.13,0,0,1,53.28,428.19Z" style="fill:#263238"></path><path d="M44.08,382.3s.08.14.2.43.28.76.46,1.26l1.66,4.65c1.4,3.93,3.35,9.35,5.62,15.3s4.41,11.29,6,15.16l1.86,4.58c.2.49.36.9.49,1.25s.16.44.14.45-.1-.14-.24-.41-.34-.73-.57-1.21c-.5-1.06-1.19-2.6-2-4.52-1.66-3.83-3.86-9.16-6.13-15.12s-4.17-11.39-5.48-15.36c-.65-2-1.16-3.59-1.5-4.71-.15-.51-.27-.94-.37-1.29A1.64,1.64,0,0,1,44.08,382.3Z" style="fill:#263238"></path><path d="M69.27,404.81a18.54,18.54,0,0,1-.33,2.74,57.67,57.67,0,0,0-.52,6.59,59.76,59.76,0,0,0,.24,6.62,19,19,0,0,1,.22,2.75,11.12,11.12,0,0,1-.58-2.71,39.34,39.34,0,0,1-.4-6.67,40.53,40.53,0,0,1,.68-6.64A11.9,11.9,0,0,1,69.27,404.81Z" style="fill:#263238"></path><path d="M177.21,472.59c-.09,0-.26-1.2-.75-3.11a34,34,0,0,0-6.94-13.54c-1.27-1.5-2.15-2.35-2.09-2.42a3.26,3.26,0,0,1,.69.53,20.6,20.6,0,0,1,1.67,1.65,29.33,29.33,0,0,1,7,13.7,19.05,19.05,0,0,1,.36,2.33A3.14,3.14,0,0,1,177.21,472.59Z" style="fill:#263238"></path><path d="M183.78,469.48a23.13,23.13,0,0,1-.75-3.08c-.43-1.9-1.07-4.52-1.93-7.37s-1.76-5.39-2.45-7.22a24.59,24.59,0,0,1-1.07-3,15.63,15.63,0,0,1,1.41,2.84,68.76,68.76,0,0,1,4.4,14.66A16.45,16.45,0,0,1,183.78,469.48Z" style="fill:#263238"></path><path d="M190.38,455.82a31.71,31.71,0,0,0-1.85,16.76,8.19,8.19,0,0,1-.61-2.45,23.52,23.52,0,0,1-.12-6.11,23.85,23.85,0,0,1,1.45-5.94A8,8,0,0,1,190.38,455.82Z" style="fill:#263238"></path><path d="M434.67,397.83a5.63,5.63,0,0,1-.38,1.28c-.29.8-.67,2-1.09,3.44s-.85,3.23-1.22,5.2a57.8,57.8,0,0,0-.76,6.5,56.48,56.48,0,0,0,0,6.54c.15,2,.37,3.81.63,5.31s.51,2.71.71,3.54a5.81,5.81,0,0,1,.24,1.3,6.6,6.6,0,0,1-.44-1.25c-.26-.82-.56-2-.87-3.53a47.68,47.68,0,0,1-.75-5.34,51.06,51.06,0,0,1-.09-6.6,51.63,51.63,0,0,1,.81-6.55,48.11,48.11,0,0,1,1.33-5.23A36.13,36.13,0,0,1,434.1,399,7.72,7.72,0,0,1,434.67,397.83Z" style="fill:#263238"></path><path d="M443.52,406.67c.08.06-.74.94-1.76,2.57a21,21,0,0,0-1.54,3,23.61,23.61,0,0,0-1.2,3.93,23.15,23.15,0,0,0-.4,4.08,20.18,20.18,0,0,0,.27,3.35c.31,1.89.73,3,.64,3.05a2.64,2.64,0,0,1-.36-.76,13.31,13.31,0,0,1-.64-2.22,18.11,18.11,0,0,1-.39-3.41,21.56,21.56,0,0,1,.37-4.19,20.84,20.84,0,0,1,1.27-4,17.33,17.33,0,0,1,1.67-3,12.73,12.73,0,0,1,1.45-1.8C443.28,406.84,443.5,406.64,443.52,406.67Z" style="fill:#263238"></path><path d="M97,383.15a9.27,9.27,0,0,1,1.59,0,15.42,15.42,0,0,1,1.85.14,24.24,24.24,0,0,1,2.44.35,27.34,27.34,0,0,1,2.91.65c1,.25,2.13.64,3.28,1a41.51,41.51,0,0,1,7.06,3.44,42.36,42.36,0,0,1,6.23,4.79c.85.86,1.69,1.65,2.37,2.48a27.62,27.62,0,0,1,1.89,2.32c.57.71,1,1.42,1.39,2A14.66,14.66,0,0,1,129,402a9,9,0,0,1,.71,1.42,11.16,11.16,0,0,1-.88-1.32,17.55,17.55,0,0,0-1-1.53c-.42-.59-.86-1.28-1.45-2a29.48,29.48,0,0,0-1.91-2.25c-.69-.81-1.53-1.58-2.38-2.42a45.32,45.32,0,0,0-6.17-4.7,44.68,44.68,0,0,0-7-3.43c-1.13-.4-2.19-.8-3.22-1.06s-2-.52-2.87-.71-1.7-.3-2.41-.42a17.5,17.5,0,0,0-1.83-.23A8.28,8.28,0,0,1,97,383.15Z" style="fill:#263238"></path><path d="M109.68,362.18a9,9,0,0,1,1.16,1.19c.72.79,1.72,2,2.89,3.48a75,75,0,0,1,13.17,26.66c.49,1.85.83,3.36,1,4.42a11.64,11.64,0,0,1,.25,1.64,8.63,8.63,0,0,1-.45-1.6c-.24-1-.63-2.53-1.16-4.36a85.13,85.13,0,0,0-5.37-13.85,84.75,84.75,0,0,0-7.74-12.68c-1.13-1.54-2.08-2.75-2.76-3.58A10.19,10.19,0,0,1,109.68,362.18Z" style="fill:#263238"></path></g><g id="freepik--magnifying-glass--inject-137"><path d="M271.89,456.31a1.87,1.87,0,0,1-.69-.13l-38.26-14a2,2,0,0,1,1.37-3.76l38.26,14a2,2,0,0,1-.68,3.88Z" style="fill:#455a64"></path><path d="M290.78,480.59c-14,0-25.38-7.75-25.38-17.29S276.78,446,290.78,446s25.37,7.75,25.37,17.28S304.77,480.59,290.78,480.59Zm0-30.57c-11.79,0-21.38,6-21.38,13.28s9.59,13.29,21.38,13.29,21.37-6,21.37-13.29S302.56,450,290.78,450Z" style="fill:#455a64"></path><path d="M290.11,474.8a4.39,4.39,0,0,1-1.1.08,24.4,24.4,0,0,1-3-.21,22.94,22.94,0,0,1-9.31-3.23,11.17,11.17,0,0,1-5.24-8.18,6.67,6.67,0,0,1,.44-3,4.38,4.38,0,0,1,.35-.74c.09-.17.15-.25.17-.24a8.8,8.8,0,0,1-.33,1,7.14,7.14,0,0,0-.26,2.89A11.13,11.13,0,0,0,277,471a24.4,24.4,0,0,0,9.09,3.29C288.55,474.72,290.11,474.71,290.11,474.8Z" style="fill:#263238"></path><path d="M296.7,471.22a76.06,76.06,0,0,1-6-6.48,74.32,74.32,0,0,1-5.57-6.81,74.92,74.92,0,0,1,6,6.47A74,74,0,0,1,296.7,471.22Z" style="fill:#263238"></path><path d="M294.06,461.67a18.16,18.16,0,0,1-3.1-3.12,19,19,0,0,1-2.72-3.46,18.4,18.4,0,0,1,3.11,3.12A19.19,19.19,0,0,1,294.06,461.67Z" style="fill:#263238"></path><path d="M277.71,448.47a22.81,22.81,0,0,1-2,1.09,26.05,26.05,0,0,0-4.55,3.18,24.87,24.87,0,0,0-3.74,4.1c-.83,1.16-1.23,2-1.31,1.92a6.54,6.54,0,0,1,1-2.12,19.48,19.48,0,0,1,3.7-4.29,20.57,20.57,0,0,1,4.72-3.12A6.84,6.84,0,0,1,277.71,448.47Z" style="fill:#263238"></path></g></svg>